<svg width="991" height="879" viewBox="0 0 991 879" fill="none" xmlns="http://www.w3.org/2000/svg">
<path d="M731.915 811.769C730.124 811.725 728.255 811.997 726.556 811.579C720.046 809.977 713.417 808.625 707.153 806.31C695.756 802.099 684.463 797.548 673.371 792.593C666.271 789.423 659.438 785.551 652.789 781.497C643.803 776.02 634.961 770.279 626.318 764.275C603.034 748.1 579.062 733.063 553.898 719.988C541.273 713.429 527.874 708.826 513.983 705.864C504.691 703.882 495.274 703.613 485.886 705.832C480.238 707.167 474.54 708.303 468.838 709.39C459.323 711.204 450.269 714.307 441.611 718.641C440.051 719.421 438.293 719.807 436.626 720.375C435.6 718.12 433.288 717.591 431.355 716.807C422.072 713.042 420.763 698.382 427.924 693.659C429.425 692.669 430.72 691.34 432.281 690.476C438.822 686.857 445.763 684.374 453.198 683.287C454.26 683.132 455.213 682.222 456.124 681.712C455.52 679.204 453.93 678.369 452.275 677.571C450.173 676.556 448.105 675.473 446.005 674.454C440.429 671.748 437.12 667.039 435.086 661.461C434.118 658.807 433.309 655.761 433.626 653.032C434.789 643.027 440.315 635.193 447.492 628.577C450.785 625.54 454.629 622.97 458.553 620.778C465.501 616.896 472.587 613.121 480.956 613.399C481.26 613.409 481.575 613.081 482.136 612.771C482.136 611.904 482.136 610.898 482.136 609.558C480.182 609.063 478.304 608.502 476.39 608.121C473.391 607.525 470.335 607.187 467.359 606.5C455.545 603.774 444.048 600.127 432.849 595.394C417.142 588.755 402.772 580.249 391.179 567.547C385.873 561.733 382.249 555.119 383.262 546.935C383.701 543.385 384.821 539.906 385.801 536.443C386.203 535.025 386.816 533.724 385.619 531.757C384.334 531.454 382.646 530.946 380.921 530.683C379.494 530.465 377.968 530.768 376.579 530.443C360.234 526.619 344.696 520.871 331.201 510.58C323.689 504.851 316.562 498.689 311.692 490.377C309.014 485.806 308.367 481.009 309.64 475.83C310.509 472.296 312.587 469.725 315.046 467.223C317.452 464.774 317.145 462.298 314.397 460.377C313.218 459.553 311.874 458.925 310.536 458.377C300.946 454.447 292.025 449.343 283.65 443.256C274.276 436.443 266.313 428.435 261.736 417.535C259.196 411.485 257.444 405.217 257.826 398.626C258 395.615 259.066 392.646 259.806 389.678C261.707 382.049 265.578 376.067 273.493 373.509C273.988 373.349 274.432 373.032 274.857 372.81C274.886 369.618 274.864 369.641 273.732 368.293C261.726 353.987 253.091 337.808 246.688 320.312C243.626 311.945 241.722 303.315 240.544 294.588C239.83 289.302 239.359 283.731 241.273 278.417C245.705 266.11 254.347 257.811 266.036 252.443C269.322 250.934 272.697 249.621 276.014 248.18C277.632 247.476 278.857 246.489 278.072 244.386C275.184 242.482 271.887 242.347 268.652 242.734C264.369 243.246 260.138 244.18 255.88 244.901C246.646 246.465 239.051 251.334 231.967 257.045C226.281 261.628 223.241 268.12 220.716 274.751C219.248 278.608 217.835 282.675 217.507 286.737C216.79 295.607 217.37 304.459 220.607 312.929C222.478 317.824 224.064 322.848 226.244 327.6C229.496 334.688 232.978 341.685 236.7 348.536C240.141 354.867 244.027 360.956 247.811 367.312C247.215 367.997 246.699 368.737 246.044 369.321C243.346 371.727 240.653 374.143 237.872 376.451C231.063 382.1 230.136 390.108 229.51 398.045C229.217 401.757 229.781 405.662 230.646 409.315C233.583 421.719 238.093 433.607 245.251 444.171C250.307 451.632 255.953 458.769 262.538 465.031C265.683 468.022 268.974 470.858 272.215 473.748C274.02 475.358 275.655 476.984 275.152 479.765C274.671 482.419 274.733 485.229 273.893 487.748C271.922 493.66 273.644 499.18 275.129 504.746C277.48 513.56 282.495 520.83 288.781 527.242C291.687 530.206 294.993 532.773 298.079 535.563C302.813 539.841 308.216 543.091 313.795 546.123C324.047 551.694 335.003 555.271 346.3 557.954C347.272 558.185 348.154 558.797 349.128 559.256C347.783 564.729 347.421 570.169 348.572 575.153C350.604 583.953 355.314 591.676 362.387 597.418C369.288 603.02 377.064 607.332 385.458 610.444C387.92 611.357 390.267 612.581 392.928 613.781C392.147 614.736 391.752 615.344 391.239 615.827C387.173 619.652 384.464 624.24 383.092 629.671C381.357 636.541 381.333 643.257 384.369 649.812C386.828 655.12 390.367 659.694 393.984 664.227C394.452 664.815 394.608 665.653 395.207 667.094C392.226 666.435 389.97 666.022 387.76 665.432C380.653 663.535 373.685 663.155 366.458 665.432C354.435 669.221 349.286 678.532 349.487 690.218C349.551 693.936 350.572 697.703 351.584 701.327C354.089 710.298 358.281 718.514 363.372 726.289C363.932 727.144 364.29 728.131 364.747 729.066C364.117 729.623 363.775 730.063 363.325 730.302C356.797 733.784 351.62 738.713 347.346 744.728C340.721 754.053 336.658 763.954 339.455 775.67C339.745 776.882 339.565 778.206 339.603 779.478C334.524 782.702 329.457 785.947 324.346 789.12C323.787 789.467 322.97 789.398 322.273 789.522C321.1 785.734 319.68 782.001 318.804 778.145C316.909 769.802 318.219 761.461 320.154 753.378C323.153 740.854 330.521 731.584 342.627 726.458C343.412 726.125 344.13 725.631 345.081 725.099C344.588 724.241 344.247 723.633 343.892 723.032C338.517 713.914 333.995 704.425 332.36 693.866C330.967 684.864 331.418 675.977 337.004 668.294C343.657 659.145 352.702 653.364 363.706 650.68C364.674 650.444 365.633 650.171 366.304 649.993C365.372 644.953 364.311 640.377 363.727 635.74C363.103 630.782 365.801 626.38 367.061 621.559C363.543 619.881 360.245 618.421 357.052 616.76C348.236 612.174 340.448 606.395 335.172 597.707C331.386 591.474 329.289 584.923 330.658 577.538C330.947 575.978 330.872 574.351 330.98 572.471C329.254 571.928 327.738 571.43 326.209 570.974C315.761 567.861 305.331 564.629 296.167 558.513C290.592 554.793 285.06 550.919 279.993 546.551C274.786 542.064 269.782 537.215 265.385 531.944C258.993 524.281 255.499 515.243 254.074 505.251C252.874 496.846 253.656 489.014 257.817 481.575C258.227 480.841 258.44 479.998 258.708 479.297C243.674 467.608 226.951 448.488 219.75 436.616C212.933 425.378 209.006 413.253 207.758 400.264C207.014 392.52 209.509 385.248 211.655 377.917C213.732 370.823 217.845 365.284 223.31 360.557C224.213 359.776 225.082 358.954 226.002 358.12C225.333 357.244 224.897 356.668 224.455 356.097C215.484 344.497 208.55 331.847 204.673 317.632C202.177 308.478 201.332 299.11 201.16 289.661C201.415 288.621 201.79 287.593 201.908 286.537C203.763 269.935 211.281 256.198 223.191 244.753C228.656 239.502 233.159 237.115 244.268 232.842C243.835 231.221 243.427 229.522 242.926 227.851C239.493 216.376 236.376 204.821 234.292 193.015C232.229 181.324 231.341 169.561 233.775 157.843C240.793 124.053 270.671 113.829 292.45 118.063C294.363 119.41 296.221 120.841 298.197 122.087C304.804 126.252 311.108 130.792 316.662 136.324C323.507 143.144 329.211 150.822 334.165 159.1C341.074 170.646 347.03 182.674 350.897 195.549C353.856 205.402 355.838 215.547 358.25 225.564C358.818 227.921 359.365 230.282 360.097 233.387C362.32 231.181 364.02 229.591 365.61 227.898C372.975 220.056 381.245 213.307 390.392 207.676C398.257 202.835 406.208 198.325 415.548 196.508C422.413 195.172 428.855 195.695 435.281 197.947C439.207 199.322 442.197 201.808 443.543 205.948C443.76 206.616 444.258 207.194 444.626 207.814C444.701 210.385 444.776 212.956 444.851 215.527C443.611 219.151 442.131 222.615 439.431 225.477C437.571 227.45 435.906 229.614 434.24 231.759C433.406 232.833 432.153 233.851 432.893 235.502C434.543 236.709 435.7 235.382 436.876 234.744C451.534 226.797 465.999 218.503 481.827 212.911C499.39 206.707 517.191 202.245 536.026 203.344C543.456 203.778 550.178 205.793 556.131 210.522C561.707 214.951 563.463 220.491 562.417 227.286C561.372 234.074 558.687 240.117 554.519 245.543C554.107 246.079 553.897 246.77 553.569 247.438C557.08 248.308 557.071 248.298 559.376 247.232C562.666 245.709 565.977 244.227 569.295 242.767C573.445 240.941 577.667 239.37 582.171 238.579C584.469 238.176 586.505 238.797 588.516 239.6C590.253 240.294 590.958 241.838 590.56 243.602C590.294 244.783 589.801 246.131 588.957 246.923C586.196 249.515 583.513 252.382 580.281 254.244C572.586 258.677 564.688 262.787 556.701 266.678C541.868 273.903 526.879 280.807 512.023 287.987C504.992 291.385 497.883 294.492 490.362 296.664C478.132 300.196 465.746 302.717 452.968 302.798C443.529 302.858 434.089 302.774 424.65 302.754C418.724 301.897 412.753 301.27 406.88 300.134C394.048 297.653 381.191 295.401 368.261 293.45C356.009 291.601 343.782 290.531 331.396 290.399C319.356 290.272 308.496 293.568 298.338 299.781C294.862 301.907 291.928 304.563 289.602 307.869C283.484 316.564 281.315 326.098 282.579 336.746C284.739 354.934 293.807 368.719 308.592 378.881C316.066 384.019 324.028 388.448 331.769 393.197C346.408 402.178 359.601 412.997 371.679 425.147C384.496 438.042 396.417 451.751 407.85 465.891C411.044 469.841 414.437 473.674 418.087 477.202C425.792 484.649 433.612 491.986 441.603 499.125C448.369 505.171 455.164 511.246 462.429 516.662C485.674 533.99 511.557 546.146 539.184 554.691C553.488 559.115 568.178 561.341 583.115 561.88C586.353 561.997 589.613 561.479 592.863 561.253C600.09 560.995 607.303 561.386 614.544 560.306C629.475 558.077 643.995 554.437 657.873 548.548C665.7 545.226 673.12 541.211 679.529 535.258C684.243 530.879 688.205 526.058 691.827 520.862C703.253 504.468 709.425 486.447 708.183 466.289C707.977 462.931 706.728 459.637 705.96 456.313C717.464 449.179 729.464 443.001 741.931 437.74C745.74 436.133 749.502 434.271 753.821 434.5C754.934 443.396 752.881 451.471 747.229 458.454C744.733 461.537 741.944 464.414 739.058 467.141C737.072 469.018 735.274 470.918 734.09 473.52C739.523 480.112 741.626 487.69 740.752 495.936C739.55 507.275 734.877 517.159 727.166 525.564C722.108 531.076 716.093 535.423 709.861 539.321C709.385 540.851 708.778 542.204 708.553 543.618C706.87 554.235 701.901 563.485 696.594 572.591C693.846 577.305 690.608 581.64 686.797 585.59C679.791 592.854 671.795 598.686 662.753 603.145C660.041 604.482 657.465 606.097 654.816 607.591C656.05 611.152 658.666 610.54 660.825 610.071C673.876 607.237 686.38 603.148 696.352 593.621C696.721 593.269 697.289 593.125 698.162 592.682C699.066 594 700.08 595.24 700.837 596.621C705.211 604.602 706.003 613.193 704.469 621.96C703.507 627.463 701.824 632.84 700.465 638.274C700.12 639.132 699.776 639.99 699.432 640.849C699.262 641.034 699.24 641.235 699.365 641.453C699.082 641.972 698.799 642.491 698.516 643.01C698.345 643.26 698.286 643.533 698.34 643.831C697.999 644.654 697.659 645.476 697.319 646.299C697.149 646.501 697.106 646.726 697.19 646.976C696.84 647.816 696.491 648.655 696.142 649.495L696.178 649.442C695.813 650.215 695.448 650.988 695.083 651.761C694.908 651.933 694.88 652.127 695.001 652.341C694.682 652.872 694.364 653.403 694.046 653.935C693.87 654.114 693.829 654.321 693.922 654.554C693.603 655.064 693.285 655.574 692.967 656.084L692.982 656.057C692.6 656.788 692.218 657.519 691.835 658.25L691.864 658.207C691.476 658.941 691.088 659.674 690.7 660.408C690.7 660.408 690.735 660.358 690.735 660.358C690.361 661.103 689.988 661.848 689.613 662.592C689.613 662.592 689.648 662.541 689.648 662.541C688.146 665.083 686.645 667.624 685.144 670.166C684.232 670.929 682.972 671.521 683.716 673.313C685.463 672.829 687.16 672.238 688.905 671.895C699.912 669.732 711.22 674.793 713.474 687.349C714.465 692.866 714.416 698.564 713.103 704.11C711.22 712.062 708.653 719.782 704.94 727.092C704.299 728.353 703.801 729.686 703.067 731.381C704.9 731.381 706.321 731.473 707.727 731.366C714.4 730.857 720.735 732.348 726.787 734.905C733.426 737.709 739.206 741.638 742.099 748.707C743.195 751.386 744.422 754.011 745.594 756.659C747.881 761.829 747.806 767.276 747.242 772.706C746.259 782.181 743.375 791.093 738.746 799.431C736.465 803.542 734.192 807.657 731.915 811.769ZM256.444 223.163C256.444 219.84 256.561 217.5 256.412 215.176C256.252 212.671 255.641 210.187 255.584 207.686C255.452 201.876 255.552 196.062 255.526 190.249C255.495 183.43 258.068 177.528 262.179 172.308C264.618 169.21 268.131 166.923 272.058 167.547C278.859 168.629 285.358 170.938 290.633 175.728C297.51 181.971 303.464 188.998 308.38 196.881C310.963 201.024 313.117 205.334 314.083 210.221C315.087 215.294 313.533 219.474 310.357 223.258C309.255 224.571 307.869 225.154 306.081 225.238C300.732 225.488 295.613 224.956 290.884 222.134C289.268 221.169 287.423 220.589 285.461 219.737C284.579 222.783 286.279 224.007 287.945 224.985C293.246 228.096 298.511 231.312 304.024 234.006C307.717 235.811 311.723 237.193 315.741 238.069C323.693 239.804 330.565 235.577 331.709 228.132C332.307 224.244 332.252 220.083 331.579 216.204C329.485 204.134 323.952 193.281 318.64 182.406C316.663 178.358 314.007 174.648 311.796 170.708C307.075 162.298 301.473 154.595 294.479 147.899C288.696 142.364 281.879 138.7 274.159 137.086C269.123 136.032 263.863 136.747 259.653 139.993C254.715 143.8 250.914 148.638 248.983 154.755C247.895 158.203 247.176 161.693 246.514 165.255C244.935 173.757 245.268 182.329 246.034 190.721C246.847 199.62 249.38 208.371 251.316 217.152C251.696 218.875 252.656 220.52 253.605 222.041C253.941 222.58 255.042 222.642 256.444 223.163Z" fill="#01499D"/>
<path d="M201.16 289.662C201.332 299.11 202.177 308.478 204.673 317.632C208.55 331.847 215.484 344.497 224.455 356.097C224.897 356.668 225.333 357.244 226.002 358.12C225.082 358.954 224.213 359.776 223.31 360.557C217.845 365.284 213.732 370.823 211.655 377.917C209.509 385.248 207.014 392.52 207.758 400.264C209.006 413.253 212.933 425.378 219.75 436.616C226.951 448.488 243.674 467.608 258.708 479.297C258.44 479.998 258.227 480.842 257.817 481.575C253.656 489.014 252.874 496.846 254.074 505.251C255.499 515.243 258.993 524.281 265.385 531.944C269.782 537.215 274.786 542.064 279.993 546.551C285.06 550.919 290.592 554.793 296.167 558.513C305.331 564.629 315.761 567.861 326.209 570.974C327.738 571.43 329.254 571.928 330.98 572.471C330.872 574.351 330.947 575.978 330.658 577.538C329.289 584.923 331.386 591.474 335.172 597.707C340.448 606.395 348.236 612.174 357.052 616.76C360.245 618.421 363.543 619.881 367.061 621.559C365.801 626.38 363.103 630.782 363.727 635.74C364.311 640.377 365.372 644.953 366.304 649.993C365.633 650.171 364.674 650.444 363.706 650.68C352.702 653.364 343.657 659.145 337.004 668.294C331.418 675.977 330.967 684.864 332.36 693.866C333.995 704.425 338.517 713.914 343.892 723.032C344.247 723.633 344.588 724.241 345.081 725.099C344.13 725.631 343.412 726.125 342.627 726.458C330.521 731.584 323.153 740.854 320.154 753.378C318.219 761.462 316.909 769.802 318.804 778.145C319.68 782.001 321.1 785.734 322.273 789.522C322.032 789.986 321.904 790.713 321.531 790.874C310.887 795.487 300.361 800.423 289.511 804.495C279.668 808.19 269.298 810 258.811 811.242C253.181 811.91 247.584 812.183 241.982 811.93C225.214 811.174 209.36 807.023 195.118 797.899C187.553 793.052 181.741 786.208 175.984 779.418C168.008 770.011 164.261 758.71 161.775 746.872C159.179 734.509 158.84 721.981 159.754 709.482C160.573 698.29 162.82 687.256 165.302 676.297C169.116 659.456 174.745 643.213 181.093 627.182C183.628 620.783 185.54 614.14 187.916 607.674C191.106 598.997 194.297 590.312 197.839 581.776C199.403 578.008 200.067 574.117 200.646 570.21C202.355 558.676 200.427 547.851 193.895 537.966C189.48 531.286 184.612 524.984 179.179 519.112C175.727 515.382 172.417 511.503 168.766 507.978C157.795 497.385 146.666 486.957 135.64 476.421C125.925 467.137 116.224 457.855 107.875 447.245C102.027 439.814 96.3338 432.283 91.7851 424C84.818 411.312 79.7842 397.972 80.0249 383.199C80.144 375.882 81.7922 368.804 84.5847 362.064C90.6243 347.486 100.237 335.761 112.49 325.782C125.361 315.297 139.836 308.084 155.116 302.11C169.342 296.548 184.096 292.905 198.991 289.747C199.689 289.6 200.436 289.685 201.16 289.662Z" fill="#69C0FF"/>
<path d="M697.19 646.976C697.106 646.726 697.149 646.501 697.319 646.299C698.446 645.802 698.473 644.849 698.34 643.831C698.286 643.533 698.345 643.26 698.516 643.01C698.799 642.491 699.082 641.972 699.365 641.453C699.24 641.235 699.262 641.034 699.432 640.849C700.641 640.337 700.638 639.34 700.465 638.274C701.824 632.84 703.507 627.463 704.469 621.96C706.003 613.193 705.211 604.602 700.837 596.621C700.08 595.24 699.066 594 698.162 592.682C697.289 593.125 696.721 593.269 696.352 593.621C686.38 603.148 673.876 607.237 660.825 610.071C658.667 610.54 656.05 611.152 654.816 607.591C657.465 606.097 660.041 604.482 662.753 603.145C671.795 598.686 679.791 592.854 686.797 585.59C690.608 581.64 693.846 577.305 696.594 572.591C701.901 563.485 706.87 554.235 708.553 543.618C708.778 542.204 709.385 540.851 709.861 539.321C716.093 535.423 722.108 531.076 727.166 525.564C734.877 517.159 739.55 507.275 740.752 495.936C741.626 487.69 739.524 480.112 734.09 473.52C735.275 470.918 737.072 469.018 739.058 467.141C741.944 464.414 744.733 461.537 747.229 458.454C752.881 451.471 754.934 443.396 753.821 434.5C755.939 434.247 758.096 433.606 760.167 433.818C765.032 434.314 769.778 435.462 774.411 437.155C781.726 439.829 789.096 442.363 796.495 444.795C806.419 448.057 816.504 449.71 826.99 447.803C835.764 446.207 843.686 443.092 849.972 436.495C853.18 433.128 854.978 428.993 856.68 424.785C860.64 424.141 860.757 423.976 861.004 420.718C861.424 415.164 860.6 409.899 857.694 405.051C857.137 404.121 856.736 403.098 856.232 402.135C855.312 400.376 855.293 398.758 856.544 397.066C857.474 395.807 858.104 394.327 858.817 393.038C854.666 387.526 849.362 384.108 843.932 380.824C842.276 379.823 840.746 378.613 838.983 377.376C840.45 374.962 840.847 372.735 838.493 371.34C835.231 369.406 831.804 367.737 828.373 366.112C827.652 365.771 826.42 365.804 825.748 366.206C823.97 367.268 822.607 366.367 821.189 365.614C820.238 365.109 819.436 364.084 818.456 363.908C811.745 362.705 805.29 360.134 798.291 360.412C792.342 360.648 786.359 360.15 780.483 361.558C774.894 362.897 769.203 363.893 763.72 365.572C756.27 367.853 749.327 371.425 742.412 374.997C739.064 376.727 735.684 378.393 732.318 380.088C731.851 376.878 731.641 373.603 730.861 370.47C729.456 364.821 725.852 360.606 721.264 357.174C721.446 356.495 721.483 355.728 721.832 355.15C726.137 348.008 728.363 340.149 729.908 332.048C730.399 331.519 730.808 330.869 731.392 330.48C740.105 324.671 745.509 316.418 748.155 306.514C750.617 297.295 751.84 287.937 745.72 279.359C745.425 278.946 745.416 278.327 745.274 277.804C750.329 278.156 755.396 278.392 760.436 278.895C764.933 279.344 769.414 280.012 773.88 280.72C782.993 282.164 792.179 283.302 801.177 285.283C818.342 289.061 835.359 293.498 851.928 299.436C866.486 304.653 880.733 310.643 893.229 319.944C903.163 327.337 912.254 335.626 918.618 346.543C924.12 355.982 927.323 366.001 927.687 376.946C928.049 387.839 925.77 398.031 921.393 408.08C915.877 420.743 907.858 431.667 899.435 442.332C893.936 449.295 887.865 455.851 881.632 462.176C876.165 467.723 870.016 472.591 864.347 477.949C857.229 484.675 850.262 491.564 843.291 498.444C839.152 502.529 835.149 506.751 831.053 510.88C820.9 521.115 812.295 532.543 804.924 544.907C802.19 549.493 800.757 554.679 800.178 559.849C799.458 566.278 798.282 572.717 799.538 579.339C800.544 584.649 800.385 590.169 800.986 595.569C802.73 611.242 805.283 626.773 809.611 641.97C814.076 657.649 818.658 673.296 822.984 689.014C826.078 700.255 827.673 711.745 827.07 723.431C826.096 742.304 822.172 760.478 812.533 776.94C802.963 793.28 789.193 804.496 770.6 809.336C761.618 811.674 752.508 813.163 743.224 813.058C739.45 813.016 735.684 812.222 731.915 811.769C734.192 807.657 736.465 803.542 738.746 799.432C743.375 791.094 746.259 782.181 747.242 772.706C747.806 767.276 747.881 761.829 745.594 756.659C744.422 754.011 743.195 751.386 742.099 748.708C739.206 741.638 733.426 737.709 726.787 734.905C720.735 732.349 714.4 730.857 707.727 731.366C706.321 731.473 704.9 731.381 703.067 731.381C703.801 729.686 704.299 728.353 704.94 727.092C708.653 719.782 711.22 712.062 713.103 704.11C714.416 698.564 714.465 692.866 713.474 687.349C711.22 674.793 699.912 669.732 688.905 671.895C687.16 672.238 685.463 672.829 683.716 673.313C682.972 671.521 684.232 670.929 685.144 670.166C688.094 670.107 689.485 668.434 689.708 665.654C689.791 664.625 689.674 663.579 689.648 662.541L689.613 662.592C690.765 662.238 690.825 661.335 690.735 660.358L690.7 660.408C691.847 660.076 691.918 659.175 691.864 658.207L691.835 658.25C692.218 657.519 692.6 656.788 692.982 656.057L692.967 656.084C693.285 655.574 693.603 655.064 693.922 654.554C693.829 654.321 693.87 654.114 694.046 653.935C694.364 653.403 694.682 652.872 695.001 652.341C694.88 652.127 694.908 651.933 695.083 651.761C696.19 651.338 696.295 650.442 696.178 649.442L696.142 649.495C697.423 649.043 697.344 648.025 697.19 646.976Z" fill="#69C0FF"/>
<path d="M745.274 277.804C745.416 278.327 745.425 278.946 745.72 279.359C751.84 287.937 750.617 297.295 748.155 306.514C745.509 316.418 740.105 324.671 731.392 330.48C730.808 330.869 730.399 331.519 729.908 332.048C723.26 334.905 716.618 337.777 709.962 340.615C704.568 342.915 698.919 344.046 693.062 344.176C690.884 344.224 688.654 344.027 686.537 344.422C677.905 346.032 669.635 344.388 661.418 341.985C664.035 339.489 666.874 337.186 669.226 334.462C676.19 326.399 682.247 317.861 681.421 306.509C688.145 303.27 694.854 300.097 701.51 296.818C708.745 293.254 715.213 288.544 720.913 282.878C723.065 280.739 724.914 278.144 726.32 275.454C727.606 272.992 727.753 270.155 725.411 267.898C722.744 265.328 718.922 264.834 715.934 267.001C714.047 268.37 712.405 270.132 710.843 271.886C705.381 278.022 699.432 283.604 692.682 288.306C687.392 291.993 681.646 294.517 675.224 295.566C672.724 295.974 670.725 295.723 668.615 294.18C658.23 286.583 646.612 281.501 634.308 277.942C627.117 275.861 619.803 274.462 612.26 275.226C610.29 275.426 608.308 275.823 606.419 276.413C603.85 277.214 601.81 278.807 601.605 281.715C601.391 284.745 602.881 287.082 605.617 288.245C608.101 289.301 610.736 290.172 613.39 290.624C622.699 292.211 632.066 293.456 641.369 295.074C648.199 296.262 654.781 298.417 660.852 301.826C666.922 305.235 669.13 310.883 667.392 317.55C665.599 324.426 662.181 330.292 656.851 335.016C645.214 345.328 631.788 351.594 616.201 352.962C613.141 353.185 610.084 353.445 607.021 353.617C605.03 353.729 603.009 353.925 601.04 353.716C592.419 352.801 583.787 351.925 575.205 350.707C563.94 349.11 552.73 347.131 541.474 345.468C537.011 344.809 532.488 344.557 527.992 344.12C526.774 343.795 525.573 343.364 524.335 343.162C513.241 341.353 502.122 339.696 491.049 337.769C480.484 335.93 469.819 334.896 459.148 334.608C452.133 334.418 445.077 335.686 438.042 336.327C432.56 336.827 427.363 338.47 422.401 340.728C404.548 348.851 394.5 364.684 395.478 384.054C395.902 392.448 398.126 400.503 401.71 408.132C410.77 427.422 423.764 443.872 438.612 458.96C439.438 459.799 440.705 460.203 441.767 460.809C442.938 462.346 443.861 464.196 445.326 465.362C450.098 469.16 455.029 472.763 459.984 476.323C461.702 477.557 463.667 478.448 465.52 479.495C467.121 480.91 468.58 482.539 470.344 483.706C488.705 495.847 508.341 505.571 528.481 514.355C544.251 521.233 560.789 525.354 577.786 527.083C596.765 529.014 615.415 526.604 633.469 520.126C643.806 516.417 653.396 511.405 661.83 504.332C672.319 495.535 677.653 484.295 677.532 470.543C678.044 470.038 678.467 469.323 679.083 469.063C684.074 466.947 689.102 464.917 694.119 462.86C694.366 463.541 694.775 464.207 694.838 464.904C695.85 476.009 695.575 487.021 691.468 497.566C685.377 513.205 676.38 526.82 662.991 537.239C656.375 542.386 649.199 546.902 641.403 549.671C632.424 552.86 622.948 554.732 613.6 556.776C608.145 557.969 602.517 558.357 596.974 559.156C595.394 559.384 593.715 559.543 592.863 561.253C589.613 561.479 586.353 561.997 583.115 561.88C568.178 561.341 553.487 559.115 539.184 554.691C511.557 546.146 485.674 533.99 462.429 516.662C455.164 511.246 448.369 505.171 441.603 499.125C433.612 491.986 425.792 484.649 418.086 477.202C414.437 473.674 411.044 469.841 407.85 465.891C396.417 451.751 384.496 438.042 371.678 425.147C359.601 412.997 346.408 402.178 331.769 393.197C324.027 388.448 316.066 384.019 308.592 378.881C293.807 368.719 284.739 354.934 282.579 336.746C281.314 326.098 283.484 316.564 289.602 307.869C291.928 304.563 294.862 301.907 298.338 299.781C308.496 293.568 319.356 290.272 331.396 290.399C343.782 290.531 356.009 291.601 368.261 293.45C381.191 295.401 394.048 297.653 406.88 300.134C412.752 301.27 418.724 301.897 424.65 302.754C428.584 304.151 432.714 304.578 436.815 304.74C451.869 305.335 466.796 304.901 481.725 301.938C494.145 299.474 505.594 294.667 517.148 289.987C524.855 286.865 532.257 282.997 539.904 279.716C554.391 273.5 568.973 267.507 583.482 261.342C592.341 257.578 601.441 254.6 610.819 252.445C627.093 248.707 643.688 247.375 660.253 245.807C661.721 245.727 663.19 245.647 664.658 245.567C665.017 245.621 665.377 245.725 665.736 245.722C677.224 245.631 688.381 248 699.621 249.983C710.57 251.915 720.394 256.186 729.583 262.251C735.251 265.992 740.307 270.298 743.736 276.288C744.08 276.89 744.753 277.303 745.274 277.804ZM311.203 336.97C311.441 343.905 312.4 350.74 315.046 357.181C316.201 359.991 317.724 362.828 319.729 365.073C323.929 369.778 330.374 368.163 331.858 362.068C332.573 359.129 332.635 355.953 332.5 352.906C332.347 349.475 331.437 346.081 331.229 342.649C331.033 339.421 330.794 336.041 331.514 332.948C332.85 327.21 337.413 325.821 341.665 329.832C344.126 332.154 346.19 335.071 347.829 338.052C351.06 343.93 353.885 350.032 356.851 356.055C358.694 359.799 360.341 363.649 362.373 367.286C363.208 368.778 364.629 370.206 366.133 371.004C368.835 372.436 371.259 370.768 371.313 367.69C371.336 366.431 371.2 365.135 370.914 363.909C367.802 350.599 363.452 337.733 356.79 325.744C353.471 319.77 348.912 314.818 343.139 311.173C331.817 304.025 317.613 309.211 313.622 321.965C312.106 326.81 311.112 331.819 311.203 336.97Z" fill="#DD73FE"/>
<path d="M339.603 779.478C339.565 778.206 339.745 776.882 339.455 775.67C336.658 763.954 340.721 754.053 347.346 744.728C351.62 738.713 356.797 733.784 363.325 730.302C363.775 730.063 364.117 729.623 364.747 729.066C364.29 728.131 363.932 727.144 363.372 726.289C358.281 718.514 354.088 710.298 351.584 701.327C350.572 697.703 349.551 693.936 349.487 690.218C349.286 678.532 354.435 669.221 366.458 665.432C373.685 663.155 380.653 663.535 387.76 665.432C389.97 666.022 392.226 666.435 395.207 667.094C394.608 665.653 394.452 664.815 393.983 664.227C390.367 659.694 386.828 655.12 384.369 649.812C381.333 643.257 381.356 636.541 383.092 629.671C384.464 624.24 387.172 619.652 391.239 615.827C391.752 615.344 392.147 614.736 392.928 613.781C390.267 612.581 387.92 611.357 385.458 610.444C377.064 607.332 369.288 603.02 362.387 597.418C355.314 591.676 350.603 583.953 348.572 575.153C347.421 570.169 347.783 564.729 349.128 559.256C348.154 558.797 347.272 558.185 346.3 557.954C335.003 555.271 324.047 551.694 313.795 546.123C308.216 543.091 302.813 539.841 298.079 535.563C294.993 532.773 291.687 530.206 288.781 527.242C282.495 520.83 277.48 513.56 275.129 504.746C273.644 499.18 271.922 493.66 273.893 487.748C274.733 485.229 274.671 482.419 275.152 479.765C275.655 476.984 274.02 475.358 272.214 473.748C268.974 470.858 265.683 468.022 262.538 465.031C255.953 458.769 250.307 451.632 245.251 444.171C238.093 433.607 233.583 421.719 230.646 409.315C229.781 405.662 229.217 401.757 229.51 398.045C230.136 390.108 231.063 382.1 237.872 376.451C240.653 374.143 243.346 371.727 246.044 369.321C246.699 368.737 247.215 367.997 247.811 367.312C244.026 360.956 240.14 354.867 236.7 348.536C232.978 341.685 229.496 334.688 226.244 327.6C224.064 322.848 222.478 317.824 220.607 312.929C217.37 304.459 216.79 295.607 217.507 286.737C217.835 282.675 219.248 278.608 220.716 274.751C223.241 268.12 226.281 261.628 231.967 257.045C239.051 251.334 246.646 246.465 255.88 244.901C260.138 244.18 264.369 243.246 268.652 242.734C271.887 242.347 275.184 242.482 278.072 244.386C278.857 246.489 277.632 247.476 276.014 248.18C272.697 249.621 269.322 250.934 266.036 252.443C254.347 257.811 245.705 266.11 241.273 278.417C239.359 283.731 239.83 289.302 240.544 294.588C241.722 303.315 243.626 311.945 246.688 320.312C253.091 337.808 261.726 353.987 273.732 368.293C274.864 369.641 274.886 369.618 274.857 372.81C274.432 373.032 273.988 373.349 273.493 373.509C265.578 376.067 261.707 382.049 259.805 389.678C259.066 392.646 258 395.615 257.825 398.626C257.444 405.217 259.196 411.485 261.736 417.535C266.313 428.435 274.276 436.443 283.65 443.256C292.025 449.343 300.946 454.447 310.536 458.377C311.874 458.925 313.218 459.553 314.397 460.377C317.145 462.298 317.452 464.774 315.046 467.223C312.587 469.725 310.509 472.296 309.64 475.83C308.367 481.009 309.014 485.806 311.692 490.377C316.562 498.689 323.689 504.851 331.201 510.58C344.696 520.871 360.234 526.619 376.579 530.443C377.968 530.768 379.494 530.465 380.921 530.683C382.646 530.946 384.334 531.454 385.619 531.757C386.815 533.724 386.203 535.025 385.801 536.443C384.821 539.906 383.701 543.385 383.262 546.935C382.249 555.119 385.873 561.733 391.179 567.547C402.772 580.249 417.142 588.755 432.849 595.394C444.048 600.127 455.545 603.774 467.359 606.5C470.335 607.187 473.391 607.525 476.39 608.121C478.304 608.502 480.182 609.063 482.136 609.558C482.136 610.898 482.136 611.904 482.136 612.771C481.575 613.081 481.26 613.409 480.956 613.399C472.587 613.121 465.501 616.896 458.553 620.778C454.629 622.97 450.785 625.54 447.492 628.577C440.315 635.193 434.789 643.027 433.626 653.032C433.309 655.761 434.118 658.807 435.086 661.461C437.12 667.039 440.429 671.748 446.005 674.454C448.105 675.473 450.173 676.556 452.275 677.571C453.93 678.369 455.52 679.204 456.124 681.712C455.212 682.222 454.26 683.132 453.198 683.287C445.763 684.374 438.822 686.857 432.281 690.476C430.72 691.34 429.425 692.669 427.924 693.659C420.763 698.382 422.072 713.042 431.355 716.807C433.288 717.591 435.6 718.12 436.626 720.375C435.618 721.109 434.682 721.979 433.591 722.556C406.742 736.763 381.486 753.537 356.213 770.299C350.958 773.784 345.154 776.44 339.603 779.478Z" fill="#001D86"/>
<path d="M664.658 245.567C663.19 245.647 661.721 245.727 660.253 245.807C659.95 245.192 659.8 244.247 659.316 244.023C657.696 243.272 655.956 242.779 654.346 242.217C652.903 237.231 652.465 236.78 647.856 235.015C646.339 234.434 644.875 233.717 643.38 233.077C638.825 231.126 634.582 227.955 629.138 229.447C628.836 229.53 628.396 229.381 628.107 229.201C625.839 227.795 623.591 226.355 621.518 225.04C622.046 223.536 622.856 222.353 622.757 221.251C622.599 219.498 621.927 217.766 621.312 216.084C617.65 206.077 613.948 196.085 610.248 186.092C608.632 181.728 606.987 177.374 605.397 173.124C601.355 173.677 601.344 173.682 600.192 170.794C599.389 168.782 598.732 166.703 597.804 164.752C596.754 162.545 596.189 159.939 593.13 159.241C592.336 159.059 591.711 157.699 591.202 156.773C584.989 145.478 577.372 135.184 568.944 125.468C568.386 124.825 567.639 123.876 566.98 123.875C564.638 123.874 563.463 122.228 561.983 120.919C559.14 118.407 556.333 115.837 553.32 113.542C552.092 112.606 550.404 111.998 548.86 111.827C547.144 111.637 545.815 111.044 544.412 110.112C542.787 109.032 540.908 108.333 538.76 107.282C538.038 108.948 537.435 110.338 536.935 111.492C538.299 112.898 539.289 113.919 540.28 114.939C535.777 115.228 531.16 114.983 526.793 115.912C516.522 118.096 508.892 124.475 503.049 132.905C495.292 144.097 492.097 156.91 491.335 170.279C490.882 178.228 491.406 186.232 491.49 194.212C490.913 195.049 490.519 196.323 489.729 196.655C481.335 200.182 473.868 205.289 466.295 210.211C460.842 213.756 455.463 217.415 450.031 220.993C449.517 221.332 448.858 221.451 447.363 222.01C448.688 218.786 449.674 216.385 450.883 213.442C449.597 213.576 448.743 213.492 448.039 213.777C446.924 214.23 445.908 214.931 444.851 215.527C444.776 212.956 444.701 210.385 444.626 207.814C446.295 207.729 447.911 207.559 448.33 205.705C447.657 204.048 446.621 202.6 446.57 201.119C446.493 198.875 445.403 197.488 444.026 195.975C441.425 193.116 438.013 191.892 434.443 191.475C431.036 191.077 428.245 190 426.205 187.045C413.788 190.617 402.162 195.716 390.65 200.989C389.901 199.814 389.272 198.827 388.66 197.867C387.798 198.095 387.162 198.08 386.798 198.387C383.498 201.175 380.099 203.869 377.031 206.897C374.878 209.023 372.615 210.494 369.296 210.654C368.912 210.033 368.07 209.296 368.075 208.564C368.091 206.099 367.136 204.017 366.127 201.881C365.765 201.115 365.872 200.127 365.765 199.24C367.663 195.342 369.753 191.525 371.422 187.531C376.198 176.106 382.482 165.504 388.812 154.915C396.35 142.304 403.844 129.67 412.39 117.695C421.673 104.69 431.145 91.8602 442.896 80.8922C447.16 76.9129 451.556 73.1705 456.693 70.3614C461.945 67.4894 467.202 64.6267 472.431 61.713C479.368 57.8473 487.014 56.3833 494.709 55.1281C497.92 54.6042 501.178 54.3456 504.422 54.0478C511.038 53.4405 517.432 54.7857 523.706 56.62C532.782 59.2735 541.594 62.626 549.54 67.8809C552.103 69.5754 554.61 71.3919 556.946 73.3829C562.328 77.9704 567.775 82.5087 572.846 87.4276C577.394 91.8393 581.765 96.502 585.709 101.456C598.5 117.522 609.454 134.833 619.706 152.605C628.141 167.227 636.292 182.002 643.479 197.278C650.962 213.185 658.478 229.085 664.658 245.567Z" fill="#69C0FF"/>
<path d="M365.765 199.24C365.872 200.127 365.765 201.115 366.127 201.881C367.136 204.017 368.091 206.099 368.075 208.564C368.07 209.296 368.912 210.033 369.296 210.654C372.615 210.494 374.877 209.023 377.031 206.897C380.099 203.869 383.498 201.175 386.798 198.387C387.162 198.08 387.798 198.095 388.66 197.867C389.272 198.827 389.901 199.814 390.65 200.989C402.162 195.716 413.788 190.617 426.205 187.045C428.245 190 431.036 191.077 434.443 191.475C438.013 191.892 441.424 193.116 444.026 195.975C445.403 197.488 446.493 198.875 446.57 201.119C446.621 202.6 447.657 204.048 448.33 205.705C447.911 207.559 446.295 207.729 444.626 207.814C444.258 207.194 443.76 206.616 443.543 205.948C442.197 201.808 439.207 199.322 435.281 197.947C428.855 195.695 422.413 195.172 415.548 196.508C406.208 198.325 398.257 202.835 390.392 207.676C381.245 213.307 372.975 220.056 365.61 227.898C364.02 229.591 362.32 231.181 360.097 233.387C359.365 230.282 358.818 227.921 358.25 225.564C355.838 215.547 353.856 205.402 350.897 195.549C347.03 182.674 341.074 170.646 334.165 159.1C329.211 150.822 323.507 143.144 316.662 136.324C311.108 130.792 304.804 126.252 298.197 122.087C296.221 120.841 294.362 119.41 292.45 118.063C295.463 118.358 298.631 118.158 301.459 119.043C308.774 121.332 315.516 124.832 321.304 130.009C334.024 141.387 344.214 154.704 352.116 169.811C356.492 178.177 360.37 186.755 363.628 195.619C364.104 196.913 365.041 198.037 365.765 199.24Z" fill="#69C0FF"/>
<path d="M465.52 479.495C463.667 478.448 461.702 477.557 459.984 476.323C455.029 472.763 450.098 469.16 445.326 465.362C443.861 464.196 442.938 462.346 441.767 460.809C441.969 460.309 442.042 459.679 442.393 459.326C450.206 451.472 457.798 443.373 465.959 435.895C474.42 428.143 484.309 422.247 494.105 416.322C504.85 409.822 515.965 404.073 528.005 400.283C533.41 398.582 538.925 397.766 544.583 397.477C553.213 397.036 561.581 398.727 569.948 400.314C575.093 401.29 580.131 402.83 585.217 404.116C585.659 404.339 586.101 404.562 586.543 404.785L586.914 404.742L587.245 404.914C589.877 407.655 593.189 409.072 596.837 409.829C597.664 410.512 598.406 411.349 599.329 411.855C613.193 419.467 627.614 425.837 642.572 430.966C644.612 431.666 646.802 432.127 648.952 432.273C660.172 433.038 671.121 431.73 681.27 426.634C687.581 423.465 693.818 420.039 699.686 416.124C708.889 409.985 717.807 403.411 726.742 396.879C734.131 391.476 741.976 386.989 750.834 384.567C761.54 381.64 772.41 380.073 783.587 380.034C797.293 379.987 809.693 383.805 821.176 390.972C824.863 393.273 828.298 395.975 831.886 398.44C832.52 398.876 833.335 399.049 834.48 399.51C834.428 396.699 832.978 395.33 831.667 393.893C824.823 386.389 816.583 380.899 807.287 376.902C805.863 376.29 804.568 375.377 803.214 374.603L803.163 374.664C805.307 374.817 807.525 374.668 809.582 375.172C819.881 377.696 829.345 382.195 837.883 388.405C844.378 393.129 849.473 399.252 853.329 406.364C856.469 412.154 856.878 418.406 856.68 424.785C854.977 428.993 853.18 433.128 849.972 436.495C843.686 443.092 835.764 446.207 826.989 447.803C816.504 449.71 806.419 448.057 796.495 444.795C789.096 442.363 781.726 439.829 774.411 437.155C769.778 435.462 765.032 434.314 760.166 433.818C758.096 433.606 755.939 434.247 753.821 434.5C749.502 434.271 745.739 436.133 741.931 437.74C729.463 443.001 717.464 449.179 705.96 456.313C701.703 457.936 697.527 459.703 694.119 462.86C689.102 464.917 684.074 466.947 679.083 469.063C678.467 469.323 678.044 470.038 677.532 470.543C674.123 470.959 670.723 471.492 667.302 471.77C657.982 472.528 648.813 471.461 639.768 469.195C620.288 464.316 602.143 455.958 583.952 447.725C583.133 447.354 582.424 446.749 581.628 446.318C575.725 443.123 569.988 439.55 563.869 436.841C549.588 430.517 534.847 426.912 518.914 428.974C509.072 430.248 500.367 433.759 492.125 438.906C491.52 439.283 491.174 440.076 490.28 441.226C497.279 440.022 503.469 438.565 509.741 437.96C522.309 436.75 523.67 437.006 528.981 438.949C527.202 439.462 525.868 439.931 524.496 440.231C513.868 442.556 504.28 447 495.55 453.562C486.672 460.234 478.118 467.227 470.414 475.245C468.923 476.797 467.158 478.085 465.52 479.495Z" fill="#9601D6"/>
<path d="M540.28 114.939C539.289 113.919 538.299 112.898 536.935 111.492C537.435 110.338 538.037 108.948 538.759 107.282C540.908 108.333 542.787 109.032 544.412 110.112C545.814 111.044 547.144 111.637 548.86 111.827C550.404 111.998 552.092 112.606 553.32 113.542C556.332 115.837 559.139 118.407 561.982 120.919C563.463 122.228 564.638 123.874 566.98 123.875C567.639 123.876 568.386 124.825 568.944 125.468C577.372 135.184 584.989 145.478 591.202 156.773C591.711 157.699 592.335 159.059 593.129 159.241C596.189 159.939 596.754 162.545 597.804 164.752C598.732 166.703 599.388 168.782 600.192 170.794C601.344 173.682 601.354 173.677 605.396 173.124C606.987 177.374 608.632 181.728 610.247 186.092C613.948 196.085 617.65 206.077 621.312 216.084C621.927 217.766 622.598 219.498 622.756 221.251C622.856 222.353 622.046 223.536 621.518 225.04C623.591 226.355 625.838 227.795 628.107 229.201C628.396 229.381 628.835 229.53 629.138 229.447C634.581 227.955 638.825 231.126 643.38 233.077C644.874 233.717 646.339 234.434 647.856 235.015C652.465 236.78 652.903 237.231 654.346 242.217C655.956 242.779 657.696 243.272 659.316 244.023C659.8 244.247 659.95 245.192 660.253 245.807C643.688 247.375 627.093 248.707 610.819 252.445C601.441 254.6 592.341 257.578 583.482 261.342C568.973 267.507 554.391 273.5 539.904 279.716C532.257 282.997 524.855 286.865 517.148 289.987C505.594 294.667 494.145 299.474 481.725 301.938C466.796 304.901 451.869 305.335 436.815 304.74C432.714 304.578 428.584 304.151 424.65 302.754C434.089 302.774 443.529 302.858 452.967 302.798C465.746 302.717 478.132 300.196 490.362 296.664C497.883 294.492 504.992 291.385 512.023 287.987C526.879 280.807 541.868 273.903 556.701 266.678C564.688 262.787 572.586 258.677 580.281 254.244C583.513 252.382 586.195 249.515 588.957 246.923C589.801 246.131 590.294 244.783 590.56 243.602C590.958 241.838 590.252 240.294 588.516 239.6C586.505 238.797 584.469 238.176 582.171 238.579C577.667 239.37 573.445 240.941 569.295 242.767C565.976 244.227 562.666 245.709 559.376 247.232C557.071 248.298 557.079 248.308 553.569 247.438C553.897 246.77 554.107 246.079 554.519 245.543C558.687 240.117 561.372 234.074 562.417 227.286C563.462 220.491 561.707 214.951 556.131 210.522C550.178 205.793 543.456 203.778 536.026 203.344C517.191 202.245 499.39 206.707 481.826 212.911C465.999 218.503 451.534 226.797 436.876 234.744C435.7 235.382 434.543 236.709 432.893 235.502C432.153 233.851 433.406 232.833 434.24 231.759C435.906 229.614 437.571 227.45 439.431 225.477C442.131 222.615 443.611 219.151 444.85 215.527C445.908 214.931 446.923 214.23 448.039 213.777C448.743 213.492 449.597 213.576 450.883 213.442C449.674 216.385 448.688 218.786 447.363 222.01C448.858 221.451 449.517 221.332 450.031 220.993C455.463 217.415 460.841 213.756 466.295 210.211C473.868 205.289 481.335 200.182 489.729 196.655C490.519 196.323 490.913 195.049 491.49 194.212C492.363 194.36 493.345 194.841 494.089 194.596C496.814 193.7 499.461 192.562 502.138 191.516C505.252 190.732 508.348 189.859 511.486 189.183C516.719 188.055 521.978 187.053 527.226 185.997C529.218 185.949 531.214 185.966 533.201 185.843C543.526 185.2 553.358 187.113 562.754 191.407C567.731 193.681 572.368 196.428 576.151 200.468C582.744 207.51 585.074 216.727 580.67 225.997C580.144 227.105 579.9 228.347 579.525 229.527C579.366 229.574 579.178 229.585 579.058 229.681C578.982 229.741 579.006 229.928 578.985 230.059C579.177 229.894 579.369 229.729 579.56 229.563C580.788 229.332 582.048 229.207 583.239 228.852C591.931 226.257 600.639 223.79 609.84 223.949C610.531 223.961 611.226 223.697 612.11 223.524C612.11 222.521 612.335 221.573 612.074 220.786C609.682 213.571 607.332 206.336 604.707 199.204C603.144 194.959 601.099 190.892 599.288 186.738C592.018 170.064 583.389 154.167 572.69 139.409C564.361 127.92 553.728 119.593 540.28 114.939Z" fill="#69C0FF"/>
<path d="M256.444 223.163C255.041 222.642 253.941 222.58 253.605 222.041C252.656 220.52 251.696 218.875 251.316 217.153C249.38 208.371 246.847 199.62 246.034 190.721C245.268 182.329 244.935 173.757 246.514 165.255C247.175 161.693 247.895 158.203 248.983 154.755C250.914 148.638 254.715 143.8 259.653 139.993C263.862 136.747 269.123 136.032 274.159 137.086C281.879 138.7 288.696 142.364 294.479 147.899C301.473 154.595 307.075 162.298 311.796 170.708C314.007 174.648 316.663 178.358 318.64 182.406C323.952 193.281 329.485 204.134 331.579 216.205C332.252 220.083 332.307 224.244 331.709 228.132C330.565 235.577 323.693 239.804 315.741 238.069C311.723 237.193 307.717 235.811 304.024 234.006C298.511 231.312 293.246 228.097 287.945 224.985C286.279 224.007 284.579 222.783 285.461 219.737C287.423 220.589 289.268 221.169 290.884 222.134C295.613 224.956 300.732 225.488 306.081 225.238C307.869 225.154 309.255 224.571 310.357 223.258C313.533 219.474 315.087 215.294 314.083 210.222C313.117 205.334 310.963 201.024 308.38 196.881C303.464 188.998 297.51 181.971 290.633 175.728C285.358 170.938 278.859 168.629 272.058 167.547C268.131 166.923 264.618 169.21 262.179 172.308C258.068 177.529 255.495 183.43 255.526 190.249C255.552 196.062 255.452 201.876 255.584 207.686C255.641 210.187 256.252 212.671 256.412 215.176C256.561 217.5 256.444 219.84 256.444 223.163Z" fill="#001D86"/>
<path d="M694.118 462.86C697.527 459.703 701.703 457.936 705.96 456.313C706.727 459.637 707.976 462.931 708.183 466.289C709.425 486.447 703.253 504.468 691.826 520.862C688.205 526.058 684.243 530.879 679.529 535.258C673.12 541.211 665.7 545.226 657.873 548.548C643.995 554.437 629.474 558.077 614.544 560.306C607.303 561.386 600.089 560.995 592.863 561.253C593.715 559.543 595.394 559.384 596.974 559.156C602.517 558.357 608.145 557.969 613.599 556.776C622.947 554.732 632.424 552.86 641.403 549.671C649.199 546.902 656.375 542.386 662.99 537.239C676.38 526.82 685.377 513.205 691.468 497.566C695.575 487.021 695.85 476.009 694.838 464.904C694.775 464.207 694.366 463.541 694.118 462.86Z" fill="#4BB9FD"/>
<path d="M689.647 662.541C689.674 663.579 689.791 664.625 689.708 665.654C689.485 668.434 688.094 670.107 685.144 670.166C686.645 667.624 688.146 665.083 689.647 662.541Z" fill="#4ABDFD"/>
<path d="M700.465 638.274C700.638 639.34 700.641 640.337 699.432 640.849C699.776 639.99 700.12 639.132 700.465 638.274Z" fill="#4ABDFD"/>
<path d="M698.34 643.831C698.473 644.849 698.446 645.802 697.319 646.299C697.659 645.476 697.999 644.654 698.34 643.831Z" fill="#4ABDFD"/>
<path d="M697.19 646.976C697.344 648.025 697.423 649.043 696.142 649.495C696.491 648.655 696.84 647.816 697.19 646.976Z" fill="#4ABDFD"/>
<path d="M696.178 649.442C696.295 650.442 696.19 651.338 695.083 651.761C695.448 650.988 695.813 650.215 696.178 649.442Z" fill="#4ABDFD"/>
<path d="M692.982 656.057C692.6 656.788 692.218 657.519 691.835 658.25C692.218 657.519 692.6 656.788 692.982 656.057Z" fill="#4ABDFD"/>
<path d="M691.864 658.207C691.918 659.175 691.847 660.076 690.7 660.408C691.088 659.674 691.476 658.941 691.864 658.207Z" fill="#4ABDFD"/>
<path d="M690.735 660.358C690.824 661.335 690.764 662.238 689.613 662.592C689.987 661.848 690.361 661.103 690.735 660.358Z" fill="#4ABDFD"/>
<path d="M699.364 641.453C699.081 641.972 698.799 642.491 698.516 643.01C698.799 642.491 699.081 641.972 699.364 641.453Z" fill="#4ABDFD"/>
<path d="M695 652.341C694.682 652.872 694.364 653.403 694.045 653.935C694.364 653.403 694.682 652.872 695 652.341Z" fill="#4ABDFD"/>
<path d="M693.922 654.554C693.603 655.064 693.285 655.574 692.966 656.084C693.285 655.574 693.603 655.064 693.922 654.554Z" fill="#4ABDFD"/>
<path d="M803.214 374.603C804.568 375.377 805.863 376.29 807.287 376.902C816.583 380.899 824.823 386.389 831.667 393.893C832.978 395.33 834.428 396.699 834.48 399.51C833.335 399.049 832.52 398.876 831.886 398.44C828.298 395.975 824.863 393.273 821.176 390.972C809.693 383.805 797.293 379.987 783.587 380.034C772.41 380.073 761.54 381.64 750.834 384.567C741.976 386.989 734.131 391.476 726.742 396.879C717.807 403.411 708.889 409.985 699.686 416.124C693.818 420.039 687.581 423.465 681.27 426.634C671.121 431.73 660.172 433.038 648.952 432.273C646.802 432.127 644.612 431.666 642.572 430.966C627.614 425.837 613.193 419.467 599.329 411.855C598.406 411.349 597.664 410.512 596.837 409.829C597.624 409.7 598.41 409.571 599.196 409.441C605.9 412.039 612.628 414.576 619.302 417.25C627.729 420.625 636.361 423.289 645.385 424.346C652.004 425.121 658.713 425.926 665.099 422.923C670.784 421.962 678.497 418.475 682.176 415.159C682.013 414.525 681.914 413.801 681.646 413.145C677.809 403.755 677.302 393.8 676.862 383.874C676.711 380.479 677.423 377.046 677.74 373.63C679.3 373.744 680.86 373.858 682.419 373.972C681.616 380.156 682.714 386.221 683.818 392.238C684.561 396.286 685.52 400.385 687.092 404.167C689.113 409.026 692.155 409.894 696.609 407.174C700.604 404.733 704.427 401.982 708.158 399.146C713.324 395.219 718.324 391.074 723.412 387.044C726.364 384.704 729.348 382.405 732.318 380.088C735.684 378.393 739.064 376.727 742.412 374.997C749.327 371.425 756.27 367.853 763.72 365.572C769.203 363.893 774.894 362.897 780.483 361.558C786.359 360.15 792.342 360.648 798.291 360.412C805.289 360.134 811.745 362.705 818.456 363.908C819.436 364.084 820.238 365.109 821.189 365.614C822.607 366.367 823.97 367.268 825.748 366.206C826.42 365.804 827.652 365.771 828.373 366.113C831.804 367.737 835.231 369.406 838.493 371.34C840.846 372.735 840.45 374.962 838.983 377.376C840.746 378.613 842.276 379.823 843.932 380.824C849.361 384.108 854.666 387.526 858.817 393.038C858.104 394.327 857.474 395.807 856.543 397.066C855.293 398.758 855.312 400.376 856.232 402.135C856.735 403.098 857.136 404.121 857.694 405.051C860.599 409.899 861.423 415.164 861.004 420.718C860.757 423.976 860.64 424.142 856.68 424.785C856.878 418.406 856.469 412.154 853.329 406.364C849.473 399.252 844.378 393.129 837.883 388.405C829.345 382.195 819.881 377.696 809.582 375.172C807.525 374.668 805.307 374.817 803.163 374.664C802.365 374.366 801.566 374.068 800.768 373.77C800.704 373.997 800.641 374.224 800.578 374.451C801.457 374.502 802.335 374.552 803.214 374.603Z" fill="#69C0FF"/>
<path d="M682.419 373.972C680.86 373.858 679.3 373.744 677.74 373.63C672.442 372.832 667.145 372.034 661.847 371.237C660.281 370.332 658.665 369.503 657.159 368.508C650.983 364.431 648.345 357.691 649.921 349.957C653.692 347.342 657.555 344.664 661.418 341.985C669.635 344.388 677.905 346.032 686.537 344.422C688.654 344.027 690.884 344.224 693.062 344.176C698.919 344.046 704.568 342.915 709.962 340.615C716.618 337.777 723.26 334.905 729.908 332.048C728.363 340.149 726.137 348.008 721.832 355.15C721.483 355.728 721.446 356.495 721.264 357.174C720.833 357.49 720.283 357.72 719.99 358.133C715.968 363.792 710.275 367.171 704.037 369.744C697.127 372.595 689.883 373.881 682.419 373.972Z" fill="#FCFCFE"/>
<path d="M682.419 373.972C689.883 373.881 697.127 372.595 704.037 369.744C710.275 367.171 715.968 363.792 719.99 358.133C720.283 357.72 720.833 357.49 721.264 357.174C725.852 360.606 729.456 364.821 730.861 370.47C731.64 373.603 731.851 376.878 732.318 380.088C729.348 382.405 726.364 384.704 723.412 387.044C718.324 391.074 713.324 395.219 708.158 399.146C704.427 401.982 700.604 404.733 696.609 407.174C692.155 409.894 689.113 409.026 687.092 404.167C685.52 400.385 684.561 396.286 683.818 392.237C682.713 386.221 681.616 380.156 682.419 373.972Z" fill="#034C9F"/>
<path d="M661.418 341.985C657.555 344.664 653.692 347.342 649.921 349.957C648.346 357.691 650.983 364.431 657.159 368.508C658.665 369.503 660.281 370.332 661.847 371.237C660.091 376.052 659.517 381.063 659.319 386.148C658.827 398.79 661.177 410.979 665.099 422.923C658.713 425.926 652.004 425.121 645.385 424.346C636.361 423.289 627.729 420.625 619.302 417.25C612.628 414.576 605.9 412.039 599.196 409.441C595.493 407.192 591.521 405.652 587.245 404.914L586.914 404.742L586.542 404.785C586.101 404.562 585.659 404.339 585.217 404.116C580.131 402.83 575.093 401.29 569.948 400.314C561.581 398.727 553.213 397.036 544.583 397.477C538.925 397.766 533.41 398.582 528.005 400.283C515.965 404.073 504.85 409.822 494.105 416.322C484.309 422.247 474.42 428.143 465.959 435.895C457.798 443.373 450.206 451.472 442.392 459.326C442.042 459.679 441.969 460.309 441.767 460.809C440.705 460.203 439.438 459.799 438.612 458.96C423.764 443.872 410.77 427.422 401.709 408.132C398.126 400.503 395.902 392.448 395.478 384.054C394.5 364.684 404.548 348.851 422.401 340.728C427.363 338.47 432.56 336.827 438.042 336.327C445.077 335.686 452.133 334.418 459.148 334.608C469.819 334.896 480.484 335.93 491.049 337.769C502.122 339.696 513.241 341.353 524.335 343.162C525.573 343.364 526.774 343.795 527.992 344.12C528.052 345.572 528.07 347.027 528.178 348.476C528.811 356.885 532.348 363.79 538.872 369.171C542.988 372.566 547.584 375.054 552.604 376.823C563.877 380.796 575.437 380.819 587.069 379.202C602.433 377.065 612.343 368.042 616.201 352.962C631.788 351.594 645.214 345.328 656.851 335.016C662.181 330.292 665.599 324.426 667.392 317.55C669.13 310.883 666.922 305.235 660.852 301.826C654.781 298.417 648.199 296.262 641.369 295.074C632.066 293.456 622.699 292.211 613.39 290.624C610.736 290.172 608.101 289.301 605.617 288.245C602.881 287.082 601.391 284.745 601.605 281.715C601.81 278.807 603.85 277.214 606.419 276.413C608.308 275.824 610.29 275.426 612.26 275.226C619.803 274.462 627.117 275.861 634.308 277.942C646.612 281.501 658.23 286.583 668.615 294.18C670.725 295.723 672.724 295.974 675.224 295.566C681.646 294.517 687.392 291.993 692.682 288.306C699.432 283.604 705.381 278.022 710.843 271.886C712.405 270.132 714.047 268.37 715.934 267.001C718.922 264.834 722.744 265.328 725.411 267.898C727.753 270.155 727.606 272.992 726.32 275.454C724.914 278.144 723.065 280.739 720.913 282.878C715.213 288.544 708.745 293.254 701.51 296.818C694.854 300.097 688.145 303.27 681.421 306.509C682.247 317.861 676.19 326.399 669.226 334.462C666.874 337.186 664.035 339.489 661.418 341.985Z" fill="#070B40"/>
<path d="M465.52 479.495C467.158 478.085 468.923 476.797 470.414 475.245C478.118 467.227 486.672 460.234 495.55 453.562C504.28 447 513.868 442.556 524.496 440.231C525.868 439.931 527.202 439.462 528.981 438.949C523.67 437.006 522.309 436.75 509.741 437.96C503.469 438.564 497.279 440.022 490.28 441.226C491.174 440.076 491.52 439.283 492.125 438.906C500.367 433.759 509.072 430.248 518.914 428.974C534.847 426.912 549.588 430.517 563.869 436.841C569.988 439.55 575.725 443.123 581.628 446.318C582.424 446.749 583.133 447.354 583.952 447.725C602.143 455.958 620.288 464.316 639.768 469.195C648.813 471.461 657.982 472.528 667.302 471.77C670.723 471.492 674.123 470.959 677.532 470.543C677.653 484.295 672.319 495.535 661.83 504.332C653.396 511.405 643.806 516.417 633.469 520.126C615.415 526.604 596.765 529.014 577.786 527.083C560.789 525.354 544.251 521.233 528.482 514.355C508.341 505.571 488.705 495.847 470.344 483.706C468.58 482.539 467.121 480.91 465.52 479.495Z" fill="#070B40"/>
<path d="M616.201 352.962C612.343 368.042 602.433 377.065 587.069 379.202C575.437 380.819 563.877 380.796 552.604 376.823C547.584 375.054 542.988 372.566 538.872 369.171C532.348 363.789 528.811 356.885 528.178 348.476C528.069 347.027 528.052 345.572 527.992 344.12C532.488 344.557 537.011 344.809 541.474 345.468C552.73 347.131 563.94 349.11 575.205 350.707C583.786 351.925 592.419 352.801 601.04 353.716C603.009 353.925 605.03 353.729 607.021 353.617C610.084 353.445 613.141 353.185 616.201 352.962Z" fill="#FCFCFE"/>
<path d="M311.203 336.97C311.112 331.819 312.106 326.81 313.622 321.965C317.613 309.211 331.817 304.025 343.139 311.173C348.912 314.818 353.47 319.77 356.79 325.744C363.452 337.733 367.802 350.599 370.913 363.909C371.2 365.136 371.336 366.431 371.313 367.69C371.259 370.768 368.835 372.436 366.133 371.004C364.629 370.206 363.208 368.778 362.373 367.286C360.341 363.649 358.694 359.799 356.851 356.055C353.885 350.032 351.06 343.93 347.829 338.052C346.19 335.071 344.126 332.154 341.665 329.832C337.413 325.821 332.849 327.21 331.514 332.948C330.794 336.041 331.033 339.421 331.229 342.649C331.437 346.081 332.347 349.475 332.5 352.906C332.635 355.953 332.573 359.129 331.858 362.068C330.374 368.163 323.929 369.778 319.729 365.073C317.724 362.828 316.201 359.991 315.046 357.181C312.4 350.74 311.441 343.905 311.203 336.97Z" fill="#0A0E43"/>
<path d="M579.525 229.527C579.9 228.347 580.144 227.105 580.67 225.997C585.074 216.727 582.744 207.51 576.151 200.468C572.369 196.428 567.731 193.681 562.754 191.407C553.358 187.113 543.526 185.2 533.201 185.843C531.214 185.966 529.218 185.949 527.226 185.997C526.969 184.412 526.868 182.781 526.422 181.25C525.468 177.974 524.08 174.809 523.32 171.495C520.69 160.035 520.928 148.642 524.67 137.411C525.411 135.187 526.241 132.987 526.869 130.731C527.294 129.204 527.676 127.565 526.138 126.024C525.541 126.123 524.733 126.04 524.191 126.381C520.54 128.677 516.918 130.936 514.12 134.413C510.423 139.006 508.185 144.28 506.078 149.653C502.901 157.756 500.689 166.06 500.964 174.881C501.082 178.683 500.877 182.497 501.049 186.295C501.128 188.048 501.758 189.776 502.138 191.516C499.461 192.562 496.815 193.7 494.089 194.596C493.345 194.841 492.363 194.36 491.49 194.212C491.406 186.232 490.882 178.228 491.335 170.279C492.097 156.91 495.292 144.097 503.049 132.905C508.892 124.475 516.522 118.096 526.793 115.912C531.16 114.983 535.777 115.228 540.28 114.939C553.729 119.593 564.361 127.92 572.69 139.409C583.389 154.167 592.019 170.064 599.288 186.738C601.099 190.892 603.144 194.959 604.707 199.204C607.333 206.336 609.683 213.571 612.075 220.786C612.335 221.573 612.11 222.521 612.11 223.524C611.227 223.697 610.531 223.961 609.84 223.949C600.639 223.79 591.931 226.257 583.239 228.852C582.048 229.207 580.788 229.332 579.56 229.563C579.56 229.563 579.525 229.527 579.525 229.527Z" fill="#01499D"/>
<path d="M587.245 404.914C591.521 405.652 595.493 407.192 599.196 409.441C598.41 409.571 597.624 409.7 596.837 409.829C593.189 409.072 589.877 407.655 587.245 404.914Z" fill="#5967D7"/>
<path d="M585.217 404.116C585.659 404.339 586.101 404.562 586.542 404.785C586.101 404.562 585.659 404.339 585.217 404.116Z" fill="#5967D7"/>
<path d="M502.138 191.516C501.758 189.776 501.128 188.048 501.049 186.295C500.877 182.497 501.083 178.683 500.964 174.881C500.689 166.06 502.902 157.756 506.078 149.653C508.185 144.28 510.423 139.006 514.12 134.413C516.918 130.936 520.54 128.677 524.191 126.381C524.733 126.04 525.541 126.123 526.139 126.024C527.676 127.565 527.294 129.204 526.869 130.731C526.241 132.987 525.411 135.187 524.67 137.411C520.928 148.642 520.69 160.035 523.32 171.495C524.08 174.809 525.468 177.974 526.422 181.25C526.868 182.781 526.969 184.412 527.226 185.997C521.978 187.053 516.719 188.055 511.487 189.183C508.348 189.859 505.253 190.732 502.138 191.516Z" fill="#001E87"/>
<path d="M579.56 229.563C579.369 229.729 579.177 229.894 578.985 230.059C579.006 229.928 578.982 229.741 579.058 229.681C579.178 229.585 579.366 229.574 579.525 229.527C579.525 229.527 579.56 229.563 579.56 229.563Z" fill="#01499D"/>
<path d="M665.099 422.923C661.177 410.979 658.827 398.79 659.319 386.148C659.517 381.063 660.091 376.052 661.847 371.237C667.145 372.034 672.442 372.832 677.74 373.63C677.423 377.046 676.711 380.479 676.862 383.874C677.302 393.8 677.808 403.755 681.646 413.145C681.914 413.801 682.013 414.525 682.176 415.159C678.497 418.475 670.784 421.962 665.099 422.923Z" fill="#DA73FC"/>
<path d="M803.214 374.603C802.335 374.552 801.457 374.502 800.578 374.451C800.641 374.224 800.704 373.997 800.768 373.77C801.566 374.068 802.365 374.366 803.163 374.664L803.214 374.603Z" fill="#FF01D6"/>
</svg>
